<?xml version="1.0" standalone="no"?>
<!DOCTYPE svg PUBLIC "-//W3C//DTD SVG 20010904//EN"
 "http://www.w3.org/TR/2001/REC-SVG-20010904/DTD/svg10.dtd">
<svg version="1.0" xmlns="http://www.w3.org/2000/svg"
 width="300.000000pt" height="120.000000pt" viewBox="0 0 300.000000 120.000000"
 preserveAspectRatio="xMidYMid meet">
<metadata>
Created by potrace 1.10, written by Peter Selinger 2001-2011
</metadata>
<g transform="translate(0.000000,120.000000) scale(0.100000,-0.100000)"
fill="#000000" stroke="none">
<path d="M62 1128 c4 -10 106 -14 456 -16 l452 -2 0 -255 0 -255 -26 -10 c-40
-16 -766 -13 -787 3 -15 10 -17 39 -19 227 -3 183 -5 215 -18 215 -13 0 -15
-32 -18 -216 -2 -206 -1 -217 19 -242 l20 -27 413 0 c387 0 414 1 429 18 15
16 17 51 17 276 0 249 1 258 20 263 11 3 20 12 20 19 0 12 -80 14 -491 14
-388 0 -490 -3 -487 -12z"/>
<path d="M1793 959 c-35 -10 -73 -52 -73 -79 0 -33 40 -69 95 -85 65 -19 85
-39 62 -62 -20 -20 -63 -10 -72 17 -5 15 -15 20 -45 20 -48 0 -53 -8 -32 -51
13 -26 28 -37 60 -48 113 -35 222 40 180 125 -14 31 -40 47 -108 66 -28 8 -45
19 -45 28 0 24 41 24 58 0 13 -19 20 -20 55 -13 35 7 39 10 31 30 -17 46 -101
72 -166 52z"/>
<path d="M2090 960 c-63 -15 -91 -82 -52 -129 9 -12 44 -30 77 -39 52 -16 60
-21 60 -43 0 -36 -48 -39 -71 -5 -13 21 -25 26 -55 26 -33 0 -39 -3 -39 -21 0
-32 50 -76 97 -83 87 -15 163 31 163 99 0 43 -33 72 -106 94 -62 18 -79 43
-35 49 16 3 30 -3 40 -17 13 -17 23 -20 54 -15 20 4 37 12 37 19 0 25 -36 56
-75 65 -46 11 -48 11 -95 0z"/>
<path d="M2409 961 c-73 -23 -102 -65 -102 -146 0 -99 52 -149 154 -149 97 -1
144 48 144 149 -1 67 -20 107 -65 130 -36 19 -98 26 -131 16z m82 -80 c47 -37
23 -151 -31 -151 -10 0 -28 8 -40 18 -17 14 -22 28 -22 67 0 39 5 53 22 67 28
23 42 23 71 -1z"/>
<path d="M310 950 c-36 -24 19 -30 250 -27 201 2 235 4 235 17 0 13 -34 15
-235 17 -143 2 -241 -1 -250 -7z"/>
<path d="M1160 815 l0 -145 115 0 115 0 0 35 0 35 -70 0 -70 0 0 110 0 110
-45 0 -45 0 0 -145z"/>
<path d="M1430 815 l0 -145 125 0 125 0 0 35 0 35 -80 0 c-79 0 -80 0 -80 25
0 24 2 25 70 25 l70 0 0 35 0 35 -71 0 c-62 0 -70 2 -67 18 3 14 16 17 81 20
l77 3 0 29 0 30 -125 0 -125 0 0 -145z"/>
<path d="M2660 815 l0 -145 40 0 39 0 3 76 3 75 53 -75 c50 -73 54 -76 92 -76
l40 0 0 145 0 145 -40 0 -39 0 -3 -77 -3 -77 -53 77 c-51 74 -55 77 -93 77
l-39 0 0 -145z"/>
<path d="M310 770 c-30 -20 13 -30 120 -28 86 3 105 6 105 18 0 12 -19 15
-105 18 -58 1 -112 -2 -120 -8z"/>
<path d="M615 770 c-11 -18 13 -36 31 -25 9 6 16 15 17 20 3 14 -40 18 -48 5z"/>
<path d="M112 460 c-87 -53 -53 -180 48 -180 49 0 87 31 96 76 8 46 -7 79 -48
104 -41 25 -55 25 -96 0z m88 -40 c23 -23 26 -58 6 -85 -17 -24 -75 -23 -93 1
-20 28 -16 71 9 88 30 21 54 20 78 -4z"/>
<path d="M374 461 c-87 -53 -55 -181 46 -181 33 0 48 6 71 29 49 50 35 122
-31 156 -37 19 -49 19 -86 -4z m84 -37 c25 -17 31 -71 10 -92 -20 -20 -86 -15
-98 7 -16 30 -12 59 10 81 24 24 48 25 78 4z"/>
<path d="M645 466 c-49 -21 -60 -43 -56 -114 2 -38 47 -72 97 -72 84 0 124 97
67 159 -34 37 -68 45 -108 27z m80 -51 c30 -29 31 -45 7 -75 -34 -43 -112 -17
-112 37 0 28 33 63 60 63 12 0 32 -11 45 -25z"/>
<path d="M899 465 c-32 -17 -59 -57 -59 -85 0 -29 27 -77 49 -90 39 -20 91
-12 122 19 49 50 35 122 -31 156 -35 18 -48 18 -81 0z m79 -41 c15 -10 22 -25
22 -48 0 -40 -20 -59 -61 -58 -55 1 -78 63 -39 102 24 24 48 25 78 4z"/>
<path d="M1160 235 l0 -145 45 0 45 0 0 60 0 60 50 0 50 0 0 -60 0 -60 45 0
45 0 0 145 0 145 -45 0 -45 0 0 -50 0 -50 -50 0 -50 0 0 50 0 50 -45 0 -45 0
0 -145z"/>
<path d="M1502 264 c3 -115 3 -116 34 -143 57 -51 164 -49 215 5 22 23 24 35
27 140 l4 114 -46 0 -46 0 0 -99 c0 -105 -10 -131 -49 -131 -39 0 -51 31 -51
133 l0 97 -46 0 -46 0 4 -116z"/>
<path d="M1840 234 l0 -146 111 4 c107 3 112 4 135 31 31 36 31 72 -1 101 -22
21 -23 24 -8 39 24 24 21 76 -6 99 -19 15 -41 18 -127 18 l-104 0 0 -146z
m164 70 c9 -24 -2 -34 -40 -34 -30 0 -34 3 -34 25 0 22 4 25 34 25 22 0 36 -6
40 -16z m6 -109 c19 -22 -5 -45 -46 -45 -31 0 -34 3 -34 30 0 27 3 30 34 30
18 0 39 -7 46 -15z"/>
<path d="M2160 235 l0 -145 98 0 c106 0 138 10 161 51 12 22 12 31 2 57 -7 17
-22 34 -33 38 -19 6 -19 6 1 21 29 20 28 75 -1 103 -19 17 -35 20 -125 20
l-103 0 0 -145z m158 58 c3 -20 -1 -23 -32 -23 -32 0 -36 3 -36 26 0 23 3 25
33 22 24 -2 33 -8 35 -25z m13 -99 c11 -14 10 -18 -6 -30 -10 -8 -31 -14 -47
-14 -24 0 -28 4 -28 30 0 27 3 30 34 30 19 0 39 -7 47 -16z"/>
<path d="M45 195 c-21 -20 -25 -34 -25 -80 0 -42 3 -55 15 -55 11 0 15 11 15
43 0 67 16 81 99 85 93 5 116 -8 123 -73 3 -25 9 -49 12 -53 12 -11 26 21 26
61 0 29 -7 46 -29 68 -28 28 -33 29 -121 29 -83 0 -93 -2 -115 -25z"/>
<path d="M357 214 c-15 -16 9 -24 67 -24 82 0 106 -18 113 -83 4 -31 10 -47
19 -47 10 0 14 15 14 54 0 48 -3 57 -31 80 -27 23 -40 26 -103 26 -40 0 -76
-3 -79 -6z"/>
<path d="M610 205 c0 -12 14 -15 69 -15 87 0 111 -16 118 -83 4 -31 10 -47 19
-47 19 0 19 82 -1 119 -17 34 -38 41 -132 41 -58 0 -73 -3 -73 -15z"/>
<path d="M878 214 c-16 -16 6 -24 66 -24 85 0 116 -23 116 -86 0 -37 3 -44 20
-44 17 0 20 7 20 50 0 40 -5 56 -25 78 -23 24 -33 27 -108 30 -45 2 -85 1 -89
-4z"/>
</g>
</svg>
