<?xml version="1.0" standalone="no"?>
<!DOCTYPE svg PUBLIC "-//W3C//DTD SVG 20010904//EN"
 "http://www.w3.org/TR/2001/REC-SVG-20010904/DTD/svg10.dtd">
<svg version="1.0" xmlns="http://www.w3.org/2000/svg"
 width="1000.000000pt" height="400.000000pt" viewBox="0 0 1000.000000 400.000000"
 preserveAspectRatio="xMidYMid meet">
<metadata>
Created by potrace 1.10, written by Peter Selinger 2001-2011
</metadata>
<g transform="translate(0.000000,400.000000) scale(0.100000,-0.100000)"
fill="#000000" stroke="none">
<path d="M100 3890 c0 -20 8 -20 673 -22 l672 -3 3 -379 c1 -271 -1 -383 -9
-392 -17 -20 -1201 -21 -1218 -1 -7 9 -12 119 -13 338 l-3 324 -25 0 -25 0 -3
-317 c-3 -360 0 -377 62 -403 52 -22 1179 -22 1231 -1 60 25 60 24 65 446 l5
385 23 3 c14 2 22 10 22 23 0 19 -15 19 -730 19 -722 0 -730 0 -730 -20z"/>
<path d="M2677 3636 c-21 -8 -47 -22 -58 -32 -22 -20 -40 -78 -32 -102 20 -66
54 -92 153 -117 78 -20 92 -30 88 -64 -7 -57 -95 -50 -125 9 -7 14 -17 25 -23
24 -5 -1 -33 -2 -61 -2 l-51 -2 6 -31 c9 -45 44 -89 85 -106 48 -21 177 -21
216 0 64 33 100 98 88 158 -10 51 -52 85 -134 109 -102 30 -119 37 -119 55 0
8 11 21 25 27 32 14 75 -3 82 -33 5 -19 12 -21 64 -17 32 2 62 7 65 11 10 10
-15 62 -39 85 -47 42 -154 55 -230 28z"/>
<path d="M3115 3635 c-56 -20 -85 -59 -85 -116 0 -72 42 -107 165 -138 61 -15
75 -26 75 -57 0 -16 -8 -28 -25 -36 -37 -17 -77 0 -95 40 -11 25 -20 31 -35
27 -11 -2 -39 -5 -62 -5 -51 0 -55 -14 -20 -75 32 -57 79 -78 177 -78 99 0
150 26 181 90 44 90 1 157 -122 193 -102 30 -119 37 -119 55 0 8 11 21 25 27
31 14 74 -3 82 -32 4 -16 14 -20 47 -20 71 0 88 9 81 39 -9 37 -53 79 -94 91
-50 14 -129 12 -176 -5z"/>
<path d="M3610 3641 c-99 -32 -141 -87 -148 -195 -5 -89 8 -135 55 -187 41
-45 84 -61 167 -62 82 -1 128 16 170 63 92 102 70 292 -41 357 -48 28 -153 41
-203 24z m133 -121 c42 -40 40 -167 -3 -202 -27 -22 -78 -23 -107 -3 -49 34
-55 161 -10 202 12 11 29 23 37 26 23 8 63 -3 83 -23z"/>
<path d="M473 3630 c-31 -13 -19 -38 20 -45 18 -3 181 -5 364 -3 249 2 335 6
345 16 9 9 9 15 0 25 -16 15 -694 22 -729 7z"/>
<path d="M1740 3420 l0 -220 175 0 175 0 0 55 0 55 -105 0 -105 0 0 165 0 165
-70 0 -70 0 0 -220z"/>
<path d="M2150 3420 l0 -220 185 0 185 0 0 55 0 55 -115 0 -115 0 0 40 0 40
105 0 105 0 0 45 0 45 -105 0 -105 0 0 35 0 35 110 0 110 0 0 45 0 45 -180 0
-180 0 0 -220z"/>
<path d="M3982 3423 l3 -218 62 -3 62 -3 3 118 3 118 80 -117 80 -117 63 -1
62 0 0 220 0 220 -65 0 -65 0 0 -117 0 -117 -80 117 -81 117 -65 0 -64 0 2
-217z"/>
<path d="M473 3360 c-27 -11 -21 -35 10 -44 12 -3 85 -6 162 -6 110 1 144 4
160 16 20 15 20 15 1 30 -15 11 -54 14 -165 13 -80 0 -156 -4 -168 -9z"/>
<path d="M924 3355 c-19 -15 -19 -15 0 -30 11 -8 27 -15 37 -15 27 0 44 27 29
45 -7 8 -20 15 -29 15 -10 0 -26 -7 -37 -15z"/>
<path d="M192 2903 c-103 -36 -131 -172 -52 -248 25 -24 40 -30 93 -33 57 -4
66 -1 95 23 47 40 65 80 59 133 -11 98 -103 157 -195 125z m85 -54 c21 -7 36
-23 48 -49 17 -37 17 -40 -2 -72 -37 -63 -112 -73 -153 -21 -36 46 -23 110 28
137 33 18 41 19 79 5z"/>
<path d="M586 2904 c-50 -18 -63 -29 -87 -75 -24 -49 -24 -80 1 -130 27 -52
72 -79 134 -79 94 0 153 66 144 162 -9 93 -104 154 -192 122z m103 -70 c26
-22 31 -33 31 -70 0 -62 -26 -89 -86 -89 -38 0 -50 5 -70 28 -41 48 -27 114
31 145 32 18 61 14 94 -14z"/>
<path d="M985 2907 c-73 -28 -105 -72 -105 -142 0 -88 57 -145 145 -145 73 0
122 38 145 113 19 66 -32 150 -109 176 -40 13 -37 13 -76 -2z m84 -61 c28 -15
51 -53 51 -84 0 -36 -38 -81 -74 -87 -101 -19 -160 113 -73 165 38 24 59 25
96 6z"/>
<path d="M1366 2904 c-50 -18 -63 -29 -87 -75 -24 -48 -24 -85 0 -129 27 -53
74 -80 135 -80 184 0 198 255 16 293 -14 3 -43 -1 -64 -9z m102 -69 c39 -33
47 -67 26 -111 -19 -40 -55 -58 -99 -50 -89 18 -102 129 -20 174 32 18 61 14
93 -13z"/>
<path d="M1742 2553 l3 -218 65 0 65 0 3 88 3 87 74 0 75 0 0 -90 0 -90 65 0
65 0 0 220 0 220 -65 0 -65 0 0 -75 0 -75 -75 0 -75 0 0 75 0 75 -70 0 -70 0
2 -217z"/>
<path d="M2252 2608 c4 -181 11 -207 70 -250 30 -21 44 -23 138 -23 95 0 108
2 139 24 59 42 71 85 71 259 l0 152 -70 0 -70 0 0 -154 c0 -149 -1 -155 -22
-170 -12 -9 -34 -16 -48 -16 -14 0 -36 7 -48 16 -21 15 -22 21 -22 170 l0 154
-71 0 -71 0 4 -162z"/>
<path d="M2760 2549 l0 -222 154 6 c163 6 199 15 230 59 25 36 20 101 -10 137
-14 17 -33 31 -41 31 -10 0 -4 10 16 29 43 40 44 97 2 143 l-29 33 -161 3
-161 3 0 -222z m244 109 c19 -30 -4 -53 -58 -56 l-46 -3 0 41 0 41 46 -3 c31
-2 51 -9 58 -20z m14 -160 c33 -33 -2 -68 -69 -68 l-49 0 0 40 0 40 53 0 c29
0 58 -5 65 -12z"/>
<path d="M3240 2549 l0 -222 148 5 c167 6 212 19 236 67 32 61 9 139 -46 157
l-22 7 21 16 c51 42 57 105 14 153 l-29 33 -161 3 -161 3 0 -222z m238 119
c32 -32 -2 -68 -64 -68 l-44 0 0 40 0 40 48 0 c26 0 53 -5 60 -12z m20 -186
c6 -38 -15 -52 -74 -52 l-54 0 0 40 0 41 63 -3 c56 -3 62 -5 65 -26z"/>
<path d="M117 2524 c-68 -21 -87 -56 -87 -156 0 -71 2 -78 20 -78 17 0 20 7
20 50 0 66 22 117 55 130 42 16 211 12 245 -5 30 -15 31 -20 45 -127 5 -38 10
-48 24 -48 25 0 36 72 20 133 -13 54 -50 91 -104 106 -56 15 -181 12 -238 -5z"/>
<path d="M542 2524 c-18 -13 -21 -19 -11 -30 8 -10 37 -14 106 -14 126 0 162
-20 163 -91 0 -64 11 -99 30 -99 20 0 30 27 30 88 0 78 -42 132 -117 151 -64
17 -174 14 -201 -5z"/>
<path d="M931 2523 c-23 -15 -23 -17 -6 -30 13 -8 49 -13 107 -13 138 0 150
-10 163 -132 5 -48 10 -58 25 -58 15 0 20 10 26 45 15 101 -19 166 -98 190
-71 21 -187 20 -217 -2z"/>
<path d="M1328 2529 c-25 -14 -22 -38 5 -43 12 -3 64 -7 114 -8 120 -4 133
-15 141 -117 5 -70 5 -71 33 -71 l29 0 0 85 c0 66 -3 85 -14 85 -7 0 -21 11
-30 25 -10 15 -35 30 -68 40 -58 17 -184 20 -210 4z"/>
</g>
</svg>
